<svg width="15" height="12" viewBox="0 0 15 12" fill="none" xmlns="http://www.w3.org/2000/svg">
<path fill-rule="evenodd" clip-rule="evenodd" d="M12.9795 12H2.02047C0.904499 12 0 11.0939 0 9.97594V2.02406C0 0.90678 0.904499 0 2.02047 0H12.9795C14.0955 0 15 0.90678 15 2.02406V9.97594C15 11.0939 14.0955 12 12.9795 12ZM2.17605 10.6459H12.8246C13.4631 10.6459 13.4981 10.1979 13.4981 9.97121V2.71832L9.08809 6.82987C8.20245 7.71641 6.76522 7.71641 5.87891 6.82987L1.50256 3.04892V9.97121C1.50256 10.1979 1.80428 10.6459 2.17605 10.6459ZM12.2791 1.50051H2.68791L6.94908 5.76049C7.24407 6.056 7.72292 6.056 8.01859 5.76049L12.2791 1.50051Z" fill="white"/>
</svg>
