<svg width="15" height="16" viewBox="0 0 15 16" fill="none" xmlns="http://www.w3.org/2000/svg">
<path fill-rule="evenodd" clip-rule="evenodd" d="M12.3081 16H2.47201C1.0326 16 0 14.9252 0 13.6V2.4C0 1.07403 1.0326 0 2.47201 0H12.3081C13.4671 0 15 1.07403 15 2.4V13.6C15 14.9252 13.4671 16 12.3081 16ZM13.2083 2.8C13.2083 2.13661 12.3133 1.6 11.5941 1.6H2.90652C2.18725 1.6 1.60387 2.13661 1.60387 2.8V13.2C1.60387 13.8626 2.18725 14.4 2.90652 14.4H11.5941C12.3133 14.4 13.2083 13.8626 13.2083 13.2V2.8ZM7.24986 13.6C6.53058 13.6 6.03289 13.0626 6.03289 12.4C6.03289 11.7374 6.53058 11.2 7.24986 11.2C7.96999 11.2 8.72475 11.7374 8.72475 12.4C8.72475 13.0626 7.96999 13.6 7.24986 13.6Z" fill="white"/>
</svg>
